<svg xmlns="http://www.w3.org/2000/svg" xmlns:xlink="http://www.w3.org/1999/xlink" width="2160" zoomAndPan="magnify" viewBox="0 0 1620 1619.99993" height="2160" preserveAspectRatio="xMidYMid meet" version="1.0"><path fill="#caddff" d="M 1423.9375 845.753906 C 1297.101562 945.5625 1480.050781 1186.246094 1407.519531 1333.390625 C 1309.867188 1531.492188 712.601562 1634.222656 355.730469 1358.035156 C 56.863281 1126.738281 0.113281 686.601562 163.941406 533.109375 C 212.976562 487.175781 267.410156 480.363281 343.589844 435.570312 C 414.453125 393.910156 423.371094 382.070312 429.140625 373.964844 C 486.125 293.964844 399.773438 205.925781 428.777344 134.714844 C 474.59375 22.179688 788.664062 -0.00390625 1039.34375 72.871094 C 1106.953125 92.515625 1448.488281 200.050781 1543.507812 473.785156 C 1550.855469 494.96875 1619.921875 699.285156 1517.355469 794.535156 C 1481.800781 827.5625 1457.753906 819.144531 1423.9375 845.753906 " fill-opacity="1" fill-rule="nonzero"/><path fill="#000000" d="M 153.691406 962.390625 C 152.511719 962.390625 151.429688 961.613281 151.085938 960.425781 C 107.636719 809.5625 143.027344 688.542969 143.390625 687.339844 C 143.820312 685.90625 145.328125 685.097656 146.765625 685.523438 C 148.199219 685.957031 149.011719 687.460938 148.578125 688.894531 C 148.222656 690.089844 113.304688 809.667969 156.296875 958.925781 C 156.710938 960.367188 155.882812 961.863281 154.441406 962.285156 C 154.191406 962.359375 153.941406 962.390625 153.691406 962.390625 " fill-opacity="1" fill-rule="nonzero"/><path fill="#000000" d="M 108.769531 864.25 C 107.515625 864.25 106.386719 863.375 106.121094 862.097656 C 106.042969 861.730469 98.359375 824.640625 100.347656 772.457031 C 102.179688 724.265625 112.847656 652.914062 153.265625 586.589844 C 154.046875 585.3125 155.707031 584.910156 156.992188 585.6875 C 158.265625 586.464844 158.671875 588.136719 157.894531 589.40625 C 81.71875 714.40625 111.117188 859.523438 111.421875 860.984375 C 111.734375 862.449219 110.796875 863.882812 109.332031 864.195312 C 109.140625 864.234375 108.953125 864.25 108.769531 864.25 " fill-opacity="1" fill-rule="nonzero"/><path fill="#000000" d="M 1520.824219 487.621094 C 1520.324219 487.621094 1519.816406 487.492188 1519.382812 487.207031 C 1518.109375 486.402344 1517.738281 484.734375 1518.535156 483.464844 L 1526.023438 471.617188 C 1526.816406 470.355469 1528.492188 469.984375 1529.765625 470.78125 C 1531.015625 471.574219 1531.398438 473.25 1530.605469 474.523438 L 1523.117188 486.371094 C 1522.597656 487.175781 1521.726562 487.621094 1520.824219 487.621094 " fill-opacity="1" fill-rule="nonzero"/><path fill="#000000" d="M 1503.386719 515.21875 C 1502.894531 515.21875 1502.390625 515.078125 1501.9375 514.796875 C 1500.679688 514 1500.300781 512.320312 1501.097656 511.058594 L 1508.59375 499.207031 C 1509.394531 497.949219 1511.0625 497.570312 1512.320312 498.367188 C 1513.59375 499.167969 1513.972656 500.84375 1513.171875 502.105469 L 1505.6875 513.957031 C 1505.171875 514.765625 1504.289062 515.21875 1503.386719 515.21875 " fill-opacity="1" fill-rule="nonzero"/><path fill="#000000" d="M 1507.96875 490.523438 C 1507.476562 490.523438 1506.972656 490.382812 1506.523438 490.101562 L 1494.679688 482.617188 C 1493.414062 481.824219 1493.035156 480.144531 1493.832031 478.878906 C 1494.636719 477.621094 1496.304688 477.242188 1497.574219 478.039062 L 1509.417969 485.523438 C 1510.683594 486.328125 1511.0625 487.996094 1510.253906 489.261719 C 1509.738281 490.082031 1508.871094 490.523438 1507.96875 490.523438 " fill-opacity="1" fill-rule="nonzero"/><path fill="#000000" d="M 1535.574219 507.953125 C 1535.082031 507.953125 1534.582031 507.824219 1534.125 507.535156 L 1522.292969 500.046875 C 1521.027344 499.25 1520.640625 497.578125 1521.453125 496.308594 C 1522.238281 495.042969 1523.921875 494.671875 1525.179688 495.46875 L 1537.019531 502.957031 C 1538.300781 503.753906 1538.675781 505.429688 1537.875 506.695312 C 1537.351562 507.503906 1536.480469 507.953125 1535.574219 507.953125 " fill-opacity="1" fill-rule="nonzero"/><path fill="#000000" d="M 385.035156 81.421875 C 384.359375 81.421875 383.683594 81.175781 383.160156 80.679688 C 382.078125 79.644531 382.039062 77.921875 383.078125 76.847656 L 391.601562 67.929688 C 392.640625 66.855469 394.351562 66.8125 395.433594 67.84375 C 396.515625 68.875 396.554688 70.601562 395.519531 71.675781 L 386.992188 80.589844 C 386.460938 81.144531 385.746094 81.421875 385.035156 81.421875 " fill-opacity="1" fill-rule="nonzero"/><path fill="#000000" d="M 355.179688 112.628906 C 354.511719 112.628906 353.835938 112.382812 353.308594 111.878906 C 352.230469 110.847656 352.191406 109.132812 353.222656 108.042969 L 361.75 99.132812 C 362.789062 98.054688 364.503906 98.011719 365.585938 99.046875 C 366.667969 100.082031 366.703125 101.796875 365.667969 102.882812 L 357.140625 111.796875 C 356.609375 112.347656 355.894531 112.628906 355.179688 112.628906 " fill-opacity="1" fill-rule="nonzero"/><path fill="#000000" d="M 363.554688 81.898438 C 362.867188 81.898438 362.179688 81.644531 361.652344 81.121094 L 352.996094 72.59375 C 351.929688 71.539062 351.917969 69.828125 352.96875 68.765625 C 354.015625 67.691406 355.734375 67.679688 356.800781 68.734375 L 365.457031 77.261719 C 366.523438 78.316406 366.535156 80.027344 365.484375 81.089844 C 364.953125 81.632812 364.253906 81.898438 363.554688 81.898438 " fill-opacity="1" fill-rule="nonzero"/><path fill="#000000" d="M 393.847656 111.769531 C 393.164062 111.769531 392.476562 111.511719 391.949219 110.988281 L 383.289062 102.457031 C 382.226562 101.402344 382.210938 99.6875 383.261719 98.621094 C 384.3125 97.558594 386.027344 97.542969 387.09375 98.601562 L 395.75 107.128906 C 396.816406 108.175781 396.828125 109.890625 395.78125 110.953125 C 395.25 111.5 394.546875 111.769531 393.847656 111.769531 " fill-opacity="1" fill-rule="nonzero"/><path fill="#000000" d="M 1472.597656 390.648438 C 1470.699219 390.648438 1468.820312 391.050781 1467.035156 391.851562 C 1459.996094 395.015625 1456.800781 403.441406 1459.902344 410.648438 C 1461.40625 414.167969 1464.179688 416.851562 1467.6875 418.210938 C 1471.101562 419.542969 1474.828125 419.449219 1478.171875 417.933594 C 1485.210938 414.777344 1488.394531 406.339844 1485.292969 399.136719 C 1483.785156 395.625 1481.027344 392.941406 1477.519531 391.582031 C 1475.917969 390.957031 1474.257812 390.648438 1472.597656 390.648438 Z M 1472.609375 424.566406 C 1470.285156 424.566406 1467.957031 424.128906 1465.714844 423.269531 C 1460.847656 421.367188 1457.015625 417.652344 1454.921875 412.792969 C 1450.65625 402.894531 1455.097656 391.28125 1464.800781 386.910156 C 1469.484375 384.804688 1474.703125 384.667969 1479.476562 386.523438 C 1484.347656 388.414062 1488.175781 392.140625 1490.273438 397 C 1494.539062 406.898438 1490.105469 418.511719 1480.394531 422.882812 C 1477.902344 424.003906 1475.253906 424.566406 1472.609375 424.566406 " fill-opacity="1" fill-rule="nonzero"/><path fill="#99b9ff" d="M 1360.101562 1502.089844 L 1324.785156 1504.695312 L 663.363281 1502.089844 C 633.332031 1502.089844 609.085938 1477.800781 609.195312 1447.832031 L 614.207031 91.042969 C 614.316406 61.089844 638.75 36.800781 668.777344 36.800781 L 1329.601562 29.058594 C 1405.5625 29.058594 1419.792969 61.089844 1419.683594 91.042969 L 1414.671875 1447.832031 C 1414.5625 1477.800781 1390.132812 1502.089844 1360.101562 1502.089844 " fill-opacity="1" fill-rule="nonzero"/><path fill="#ffffff" d="M 1318.1875 1502.089844 L 621.4375 1502.089844 C 591.410156 1502.089844 567.152344 1477.71875 567.25 1447.660156 L 571.734375 86.546875 C 571.832031 56.492188 596.253906 32.128906 626.277344 32.128906 L 1323.03125 32.128906 C 1353.050781 32.128906 1377.3125 56.492188 1377.214844 86.546875 L 1372.730469 1447.660156 C 1372.632812 1477.71875 1348.214844 1502.089844 1318.1875 1502.089844 " fill-opacity="1" fill-rule="nonzero"/><path fill="#99b9ff" d="M 607.179688 1449.539062 L 611.457031 149.921875 C 611.484375 142.980469 617.117188 137.355469 624.054688 137.355469 L 1324.539062 137.355469 C 1331.480469 137.355469 1337.074219 142.980469 1337.054688 149.921875 L 1332.765625 1449.539062 C 1332.757812 1456.480469 1327.113281 1462.105469 1320.179688 1462.105469 L 619.6875 1462.105469 C 612.757812 1462.105469 607.15625 1456.480469 607.179688 1449.539062 " fill-opacity="1" fill-rule="nonzero"/><path fill="#caddff" d="M 974.417969 101.355469 C 963.171875 101.355469 954.082031 92.234375 954.128906 80.964844 C 954.160156 69.710938 963.3125 60.582031 974.558594 60.582031 C 985.804688 60.582031 994.890625 69.710938 994.859375 80.964844 C 994.816406 92.234375 985.675781 101.355469 974.417969 101.355469 " fill-opacity="1" fill-rule="nonzero"/><path fill="#000000" d="M 1375.070312 740.988281 C 1375.058594 740.988281 1375.058594 740.988281 1375.058594 740.988281 C 1373.558594 740.980469 1372.355469 739.761719 1372.363281 738.269531 L 1374.507812 86.542969 C 1374.546875 72.714844 1369.222656 59.722656 1359.480469 49.964844 C 1349.75 40.210938 1336.804688 34.84375 1323.035156 34.84375 L 626.277344 34.84375 C 597.789062 34.84375 574.535156 58.042969 574.441406 86.5625 L 572.722656 607.734375 C 572.722656 609.238281 571.507812 610.445312 570.015625 610.445312 C 570.011719 610.445312 570.007812 610.445312 570.007812 610.445312 C 568.507812 610.433594 567.300781 609.226562 567.308594 607.726562 L 569.019531 86.542969 C 569.125 55.039062 594.8125 29.417969 626.277344 29.417969 L 1323.035156 29.417969 C 1338.265625 29.417969 1352.570312 35.355469 1363.308594 46.136719 C 1374.082031 56.933594 1379.972656 71.292969 1379.929688 86.5625 L 1377.777344 738.289062 C 1377.777344 739.777344 1376.558594 740.988281 1375.070312 740.988281 " fill-opacity="1" fill-rule="nonzero"/><path fill="#000000" d="M 1318.1875 1504.800781 C 1318.183594 1504.800781 1318.183594 1504.800781 1318.171875 1504.800781 L 768.871094 1502.222656 C 767.382812 1502.214844 766.167969 1500.992188 766.179688 1499.503906 C 766.179688 1498.007812 767.398438 1496.800781 768.890625 1496.800781 L 1318.199219 1499.382812 C 1319.699219 1499.382812 1320.902344 1500.601562 1320.890625 1502.101562 C 1320.890625 1503.589844 1319.679688 1504.800781 1318.1875 1504.800781 " fill-opacity="1" fill-rule="nonzero"/><path fill="#ffffff" d="M 718.511719 484.132812 L 720.140625 484.132812 L 718.976562 373.414062 L 717.347656 373.414062 C 686.808594 373.414062 662.3125 398.121094 662.632812 428.597656 L 662.632812 428.945312 C 662.953125 459.417969 687.976562 484.132812 718.511719 484.132812 " fill-opacity="1" fill-rule="nonzero"/><path fill="#000000" d="M 716.300781 376.140625 C 702.632812 376.402344 689.890625 381.847656 680.308594 391.527344 C 670.507812 401.425781 665.195312 414.582031 665.34375 428.570312 L 665.34375 428.921875 C 665.644531 457.496094 688.890625 480.820312 717.394531 481.402344 Z M 720.144531 486.835938 L 718.511719 486.835938 C 686.539062 486.835938 660.257812 460.882812 659.921875 428.972656 L 659.921875 428.625 C 659.757812 413.179688 665.628906 398.652344 676.453125 387.71875 C 687.308594 376.746094 701.835938 370.707031 717.355469 370.707031 L 718.976562 370.707031 C 720.46875 370.707031 721.671875 371.902344 721.6875 373.394531 L 722.847656 484.101562 C 722.847656 484.828125 722.574219 485.523438 722.066406 486.039062 C 721.558594 486.550781 720.863281 486.835938 720.144531 486.835938 " fill-opacity="1" fill-rule="nonzero"/><path fill="#ffffff" d="M 1222.714844 484.136719 L 1221.085938 484.136719 L 1219.929688 373.417969 L 1221.558594 373.417969 C 1252.101562 373.417969 1277.109375 398.125 1277.4375 428.601562 L 1277.4375 428.953125 C 1277.753906 459.421875 1253.257812 484.136719 1222.714844 484.136719 " fill-opacity="1" fill-rule="nonzero"/><path fill="#000000" d="M 1222.679688 376.132812 L 1223.777344 481.402344 C 1237.441406 481.140625 1250.183594 475.691406 1259.765625 466.011719 C 1269.566406 456.113281 1274.878906 442.957031 1274.730469 428.972656 L 1274.730469 428.628906 C 1274.433594 400.046875 1251.183594 376.722656 1222.679688 376.132812 Z M 1222.726562 486.835938 L 1221.09375 486.835938 C 1219.605469 486.835938 1218.402344 485.636719 1218.386719 484.152344 L 1217.222656 373.441406 C 1217.222656 372.714844 1217.503906 372.019531 1218.011719 371.5 C 1218.519531 370.984375 1219.214844 370.703125 1219.933594 370.703125 L 1221.5625 370.703125 C 1253.539062 370.703125 1279.820312 396.65625 1280.152344 428.5625 L 1280.152344 428.910156 C 1280.316406 444.367188 1274.441406 458.894531 1263.617188 469.828125 C 1252.769531 480.796875 1238.246094 486.835938 1222.726562 486.835938 " fill-opacity="1" fill-rule="nonzero"/><path fill="#ffffff" d="M 1238.40625 424.199219 C 1237.15625 305.226562 1115.699219 182.167969 967.453125 182.167969 C 819.214844 182.167969 700.335938 305.226562 701.582031 424.199219 C 702.824219 543.164062 823.722656 612.988281 971.960938 612.988281 C 1120.195312 612.988281 1239.648438 543.164062 1238.40625 424.199219 " fill-opacity="1" fill-rule="nonzero"/><path fill="#000000" d="M 967.449219 184.882812 C 895.988281 184.882812 825.542969 214.660156 774.144531 266.589844 C 729.179688 312.027344 703.71875 369.46875 704.289062 424.171875 C 704.871094 479.941406 732.136719 527.234375 783.144531 560.949219 C 831.273438 592.753906 898.339844 610.28125 971.96875 610.28125 C 1063.902344 610.28125 1143.4375 583.199219 1190.152344 536 C 1220.820312 505.015625 1236.140625 467.40625 1235.695312 424.234375 C 1234.5 311.242188 1119.546875 184.882812 967.449219 184.882812 Z M 971.96875 615.695312 C 897.285156 615.695312 829.164062 597.867188 780.15625 565.46875 C 727.585938 530.714844 699.476562 481.878906 698.871094 424.234375 C 698.28125 368.085938 724.316406 309.242188 770.296875 262.777344 C 822.699219 209.824219 894.554688 179.457031 967.449219 179.457031 C 1038.09375 179.457031 1106.429688 206.851562 1159.890625 256.589844 C 1210.886719 304.027344 1240.488281 365.109375 1241.105469 424.171875 C 1241.5625 468.222656 1225.285156 508.207031 1194 539.808594 C 1146.269531 588.035156 1065.335938 615.695312 971.96875 615.695312 " fill-opacity="1" fill-rule="nonzero"/><path fill="#ffffff" d="M 905.101562 648.734375 L 1039.570312 648.734375 C 1098.496094 648.734375 1146.773438 696.40625 1147.390625 755.21875 C 1147.796875 794.070312 1144.402344 832.828125 1137.257812 870.953125 L 1118.957031 968.644531 C 1106.15625 1036.929688 1046.65625 1086.152344 976.917969 1086.152344 C 907.164062 1086.152344 846.632812 1036.929688 832.417969 968.644531 L 812.058594 870.953125 C 804.117188 832.828125 799.910156 794.070312 799.511719 755.21875 C 798.894531 696.40625 846.171875 648.734375 905.101562 648.734375 " fill-opacity="1" fill-rule="nonzero"/><path fill="#000000" d="M 905.101562 651.441406 C 877.289062 651.441406 851.257812 662.257812 831.824219 681.910156 C 812.445312 701.488281 801.929688 727.519531 802.214844 755.195312 C 802.621094 793.773438 806.820312 832.546875 814.710938 870.390625 L 835.066406 968.101562 C 848.984375 1034.933594 908.652344 1083.4375 976.910156 1083.4375 C 1045.152344 1083.4375 1103.769531 1034.957031 1116.289062 968.148438 L 1134.59375 870.449219 C 1141.699219 832.597656 1145.089844 793.832031 1144.683594 755.253906 C 1144.082031 698.011719 1096.921875 651.441406 1039.5625 651.441406 Z M 976.910156 1088.859375 C 906.097656 1088.859375 844.207031 1038.535156 829.757812 969.207031 L 809.410156 871.5 C 801.449219 833.300781 797.203125 794.191406 796.800781 755.253906 C 796.496094 726.113281 807.566406 698.714844 827.964844 678.09375 C 848.441406 657.410156 875.832031 646.023438 905.101562 646.023438 L 1039.5625 646.023438 C 1099.882812 646.023438 1149.46875 695 1150.089844 755.195312 C 1150.503906 794.128906 1147.082031 833.25 1139.929688 871.449219 L 1121.613281 969.152344 C 1108.617188 1038.507812 1047.757812 1088.859375 976.910156 1088.859375 " fill-opacity="1" fill-rule="nonzero"/><path fill="#000000" d="M 1045.527344 651.4375 L 899.144531 651.4375 C 897.648438 651.4375 896.4375 650.230469 896.4375 648.730469 C 896.4375 647.234375 897.648438 646.019531 899.144531 646.019531 L 1045.527344 646.019531 C 1047.027344 646.019531 1048.238281 647.234375 1048.238281 648.730469 C 1048.238281 650.230469 1047.027344 651.4375 1045.527344 651.4375 " fill-opacity="1" fill-rule="nonzero"/><path fill="#000000" d="M 789.160156 388.496094 L 1047.628906 388.496094 C 1074.472656 388.496094 1096.496094 411.898438 1096.792969 440.777344 L 1097.148438 474.882812 C 1097.378906 496.910156 1085.855469 520.242188 1065.570312 524.042969 C 994.082031 537.480469 845.820312 537.480469 774.046875 524.042969 C 753.703125 520.242188 741.671875 496.910156 741.445312 474.882812 L 741.082031 440.777344 C 740.789062 411.898438 762.308594 388.496094 789.160156 388.496094 " fill-opacity="1" fill-rule="nonzero"/><path fill="#5479f7" d="M 979.84375 457.140625 C 979.949219 466.8125 987.324219 474.648438 996.320312 474.648438 C 1005.308594 474.648438 1012.519531 466.8125 1012.425781 457.140625 C 1012.316406 447.464844 1004.949219 439.625 995.953125 439.625 C 986.953125 439.625 979.738281 447.464844 979.84375 457.140625 " fill-opacity="1" fill-rule="nonzero"/><path fill="#5479f7" d="M 806.554688 457.140625 C 806.644531 466.8125 814.03125 474.648438 823.027344 474.648438 C 832.015625 474.648438 839.226562 466.8125 839.125 457.140625 C 839.023438 447.464844 831.65625 439.625 822.660156 439.625 C 813.652344 439.625 806.445312 447.464844 806.554688 457.140625 " fill-opacity="1" fill-rule="nonzero"/><path fill="#5479f7" d="M 965.78125 911.679688 C 939.484375 911.679688 917.949219 890.308594 917.679688 863.949219 L 916.773438 776.433594 C 916.496094 750.070312 937.585938 728.703125 963.875 728.703125 C 990.167969 728.703125 1011.695312 750.070312 1011.96875 776.433594 L 1012.886719 863.949219 C 1013.15625 890.308594 992.066406 911.679688 965.78125 911.679688 " fill-opacity="1" fill-rule="nonzero"/><path fill="#5479f7" d="M 973.460938 935.203125 L 963.792969 935.203125 C 926.425781 935.203125 895.707031 904.722656 895.3125 867.253906 L 894.429688 781.898438 C 894.410156 780.398438 895.617188 779.179688 897.113281 779.160156 C 897.125 779.160156 897.128906 779.160156 897.140625 779.160156 C 898.621094 779.160156 899.832031 780.355469 899.847656 781.839844 L 900.734375 867.199219 C 901.09375 901.707031 929.378906 929.78125 963.792969 929.78125 L 973.460938 929.78125 C 989.035156 929.78125 1003.617188 923.714844 1014.53125 912.6875 C 1025.484375 901.617188 1031.429688 886.878906 1031.265625 871.203125 L 1030.324219 780.464844 C 1030.308594 778.964844 1031.503906 777.734375 1033.003906 777.71875 C 1034.589844 777.6875 1035.726562 778.90625 1035.742188 780.40625 L 1036.6875 871.144531 C 1036.867188 888.289062 1030.363281 904.390625 1018.378906 916.5 C 1006.449219 928.558594 990.492188 935.203125 973.460938 935.203125 " fill-opacity="1" fill-rule="nonzero"/><path fill="#5479f7" d="M 1018.019531 976.644531 L 916.207031 976.644531 C 911.457031 976.644531 907.570312 972.785156 907.519531 968.023438 C 907.472656 963.265625 911.277344 959.410156 916.027344 959.410156 L 1017.847656 959.410156 C 1022.585938 959.410156 1026.476562 963.265625 1026.527344 968.023438 C 1026.574219 972.785156 1022.769531 976.644531 1018.019531 976.644531 " fill-opacity="1" fill-rule="nonzero"/><path fill="#5479f7" d="M 973.0625 975.988281 L 959.835938 975.988281 L 959.113281 906.375 L 972.332031 906.375 L 973.0625 975.988281 " fill-opacity="1" fill-rule="nonzero"/><path fill="#5479f7" d="M 1230.707031 748.007812 C 1225.035156 747.820312 1220.433594 752.101562 1220.445312 757.578125 L 1220.550781 884.710938 C 1220.558594 890.191406 1225.15625 894.777344 1230.832031 894.972656 C 1236.496094 895.167969 1241.09375 890.890625 1241.09375 885.40625 L 1240.980469 758.269531 C 1240.96875 752.796875 1236.382812 748.207031 1230.707031 748.007812 " fill-opacity="1" fill-rule="nonzero"/><path fill="#5479f7" d="M 1277.070312 707.121094 C 1271.40625 706.929688 1266.8125 711.210938 1266.8125 716.683594 L 1267.003906 928.742188 C 1267.003906 934.21875 1271.601562 938.8125 1277.28125 939 C 1282.945312 939.191406 1287.535156 934.90625 1287.535156 929.4375 L 1287.34375 717.378906 C 1287.34375 711.902344 1282.746094 707.308594 1277.070312 707.121094 " fill-opacity="1" fill-rule="nonzero"/><path fill="#5479f7" d="M 1323.527344 746.640625 C 1317.851562 746.441406 1313.261719 750.726562 1313.269531 756.203125 L 1313.390625 892.355469 C 1313.390625 897.824219 1317.992188 902.417969 1323.667969 902.613281 C 1329.332031 902.800781 1333.925781 898.519531 1333.925781 893.042969 L 1333.800781 756.898438 C 1333.800781 751.421875 1329.199219 746.828125 1323.527344 746.640625 " fill-opacity="1" fill-rule="nonzero"/><path fill="#5479f7" d="M 1369.941406 762.433594 C 1364.28125 762.25 1359.683594 766.53125 1359.683594 772.003906 L 1359.792969 879.691406 C 1359.792969 885.160156 1364.386719 889.753906 1370.058594 889.941406 C 1375.730469 890.140625 1380.328125 885.859375 1380.316406 880.378906 L 1380.230469 772.691406 C 1380.222656 767.222656 1375.625 762.628906 1369.941406 762.433594 " fill-opacity="1" fill-rule="nonzero"/><path fill="#5479f7" d="M 1187.847656 778.625 C 1182.1875 778.4375 1177.609375 781.953125 1177.65625 786.496094 L 1178.402344 875.71875 C 1178.441406 880.25 1183.066406 884.085938 1188.742188 884.285156 C 1194.410156 884.472656 1198.976562 880.953125 1198.933594 876.410156 L 1198.1875 787.191406 C 1198.144531 782.648438 1193.519531 778.820312 1187.847656 778.625 " fill-opacity="1" fill-rule="nonzero"/><path fill="#5479f7" d="M 1499.757812 771.769531 C 1494.089844 771.578125 1489.503906 775.863281 1489.503906 781.332031 L 1489.597656 889.019531 C 1489.597656 894.492188 1494.195312 899.089844 1499.875 899.277344 C 1505.539062 899.464844 1510.140625 895.183594 1510.128906 889.710938 L 1510.035156 782.027344 C 1510.035156 776.550781 1505.4375 771.957031 1499.757812 771.769531 " fill-opacity="1" fill-rule="nonzero"/><path fill="#5479f7" d="M 1540.617188 796.320312 C 1534.953125 795.960938 1530.351562 798.441406 1530.328125 801.863281 L 1529.910156 869.128906 C 1529.902344 872.550781 1534.46875 875.613281 1540.132812 875.972656 C 1545.796875 876.324219 1550.394531 873.847656 1550.425781 870.429688 L 1550.835938 803.15625 C 1550.855469 799.746094 1546.28125 796.683594 1540.617188 796.320312 " fill-opacity="1" fill-rule="nonzero"/><path fill="#5479f7" d="M 1416.375 784.234375 C 1410.707031 784.046875 1406.113281 788.328125 1406.113281 793.796875 L 1406.179688 861.023438 C 1406.179688 866.496094 1410.785156 871.089844 1416.453125 871.285156 C 1422.125 871.472656 1426.71875 867.191406 1426.71875 861.722656 L 1426.65625 794.496094 C 1426.648438 789.015625 1422.054688 784.421875 1416.375 784.234375 " fill-opacity="1" fill-rule="nonzero"/><path fill="#5479f7" d="M 1459.148438 744.429688 C 1453.480469 744.246094 1448.878906 748.519531 1448.878906 754 L 1449.011719 904.066406 C 1449.019531 909.535156 1453.625 914.125 1459.289062 914.320312 C 1464.964844 914.511719 1469.558594 910.230469 1469.546875 904.753906 L 1469.414062 754.6875 C 1469.414062 749.214844 1464.8125 744.621094 1459.148438 744.429688 " fill-opacity="1" fill-rule="nonzero"/><path fill="#5479f7" d="M 713.699219 748.359375 C 708.035156 748.21875 703.488281 752.402344 703.554688 757.710938 L 705.222656 903.140625 C 705.289062 908.445312 709.929688 912.855469 715.597656 912.996094 C 721.273438 913.136719 725.816406 908.953125 725.75 903.644531 L 724.074219 758.21875 C 724.015625 752.914062 719.371094 748.5 713.699219 748.359375 " fill-opacity="1" fill-rule="nonzero"/><path fill="#5479f7" d="M 621.164062 766.59375 C 615.496094 766.453125 610.953125 770.644531 611.011719 775.953125 L 612.214844 880.304688 C 612.28125 885.613281 616.925781 890.023438 622.589844 890.164062 C 628.253906 890.300781 632.804688 886.117188 632.742188 880.8125 L 631.535156 776.460938 C 631.480469 771.15625 626.828125 766.742188 621.164062 766.59375 " fill-opacity="1" fill-rule="nonzero"/><path fill="#5479f7" d="M 575.003906 785.054688 C 569.335938 784.914062 564.792969 789.097656 564.855469 794.40625 L 565.605469 859.550781 C 565.664062 864.855469 570.308594 869.269531 575.976562 869.40625 C 581.644531 869.546875 586.1875 865.363281 586.128906 860.058594 L 585.375 794.914062 C 585.316406 789.609375 580.671875 785.195312 575.003906 785.054688 " fill-opacity="1" fill-rule="nonzero"/><path fill="#5479f7" d="M 667.136719 781.4375 C 661.460938 781.296875 656.917969 785.488281 656.984375 790.792969 L 657.738281 855.933594 C 657.792969 861.234375 662.4375 865.660156 668.113281 865.796875 C 673.777344 865.9375 678.320312 861.753906 678.257812 856.449219 L 677.511719 791.300781 C 677.445312 785.996094 672.804688 781.582031 667.136719 781.4375 " fill-opacity="1" fill-rule="nonzero"/><path fill="#5479f7" d="M 756.992188 767.042969 C 751.328125 766.902344 746.742188 772.546875 746.757812 779.636719 L 746.949219 866.699219 C 746.964844 873.789062 751.574219 879.652344 757.238281 879.789062 C 762.90625 879.929688 767.488281 874.296875 767.472656 867.207031 L 767.285156 780.132812 C 767.269531 773.042969 762.660156 767.183594 756.992188 767.042969 " fill-opacity="1" fill-rule="nonzero"/><path fill="#99b9ff" d="M 528.152344 743.769531 C 522.488281 743.621094 517.941406 747.8125 518.003906 753.117188 L 519.679688 898.539062 C 519.738281 903.84375 524.386719 908.257812 530.054688 908.394531 C 535.722656 908.542969 540.265625 904.351562 540.203125 899.046875 L 538.527344 753.625 C 538.464844 748.320312 533.820312 743.90625 528.152344 743.769531 " fill-opacity="1" fill-rule="nonzero"/><path fill="#99b9ff" d="M 481.988281 761.839844 C 476.320312 761.699219 471.777344 765.878906 471.835938 771.1875 L 473.070312 878.171875 C 473.132812 883.472656 477.777344 887.886719 483.441406 888.027344 C 489.109375 888.175781 493.65625 883.980469 493.59375 878.675781 L 492.363281 771.695312 C 492.296875 766.390625 487.65625 761.976562 481.988281 761.839844 " fill-opacity="1" fill-rule="nonzero"/><path fill="#99b9ff" d="M 473.296875 181.730469 L 139.050781 182.375 C 122.9375 182.40625 109.898438 195.492188 109.929688 211.609375 L 110.195312 349.949219 C 110.226562 366.0625 123.316406 379.097656 139.429688 379.070312 L 389.699219 378.59375 L 462.765625 434.480469 L 462.65625 378.453125 L 473.671875 378.433594 C 489.789062 378.40625 502.828125 365.308594 502.796875 349.191406 L 502.53125 210.851562 C 502.496094 194.734375 489.410156 181.699219 473.296875 181.730469 " fill-opacity="1" fill-rule="nonzero"/><path fill="#000000" d="M 461.949219 442.121094 C 461.339844 442.121094 460.734375 441.910156 460.242188 441.523438 L 389.40625 384.285156 L 288.960938 381.8125 C 287.460938 381.773438 286.277344 380.523438 286.316406 379.03125 C 286.351562 377.542969 287.535156 376.386719 289.09375 376.386719 L 390.457031 378.890625 C 391.054688 378.902344 391.632812 379.113281 392.09375 379.488281 L 459.375 433.84375 L 460.617188 383.328125 C 460.632812 382.609375 460.9375 381.921875 461.457031 381.433594 C 461.980469 380.933594 462.667969 380.664062 463.394531 380.683594 L 474.40625 380.953125 C 474.625 380.964844 474.847656 380.964844 475.0625 380.964844 C 489.359375 380.964844 501.160156 369.515625 501.515625 355.148438 L 504.917969 216.84375 C 505.09375 209.773438 502.503906 203.0625 497.628906 197.9375 C 492.757812 192.824219 486.179688 189.902344 479.113281 189.730469 L 144.96875 181.515625 C 137.9375 181.296875 131.1875 183.929688 126.066406 188.792969 C 120.945312 193.671875 118.03125 200.253906 117.855469 207.320312 L 114.453125 345.617188 C 114.277344 352.683594 116.867188 359.398438 121.742188 364.523438 C 126.617188 369.648438 133.191406 372.558594 140.261719 372.726562 L 180.476562 373.714844 C 181.976562 373.753906 183.160156 375 183.121094 376.5 C 183.085938 377.992188 181.851562 379.160156 180.34375 379.140625 L 140.125 378.152344 C 131.613281 377.945312 123.691406 374.421875 117.816406 368.261719 C 111.945312 362.085938 108.824219 354.003906 109.035156 345.484375 L 112.441406 207.183594 C 112.648438 198.667969 116.164062 190.746094 122.332031 184.875 C 128.496094 179.003906 136.566406 175.921875 145.101562 176.089844 L 479.242188 184.316406 C 487.761719 184.527344 495.683594 188.035156 501.554688 194.207031 C 507.429688 200.371094 510.546875 208.460938 510.335938 216.976562 L 506.933594 355.277344 C 506.507812 372.589844 492.289062 386.378906 475.0625 386.378906 C 474.800781 386.378906 474.535156 386.378906 474.273438 386.367188 L 465.96875 386.167969 L 464.65625 439.476562 C 464.632812 440.507812 464.023438 441.433594 463.085938 441.871094 C 462.722656 442.042969 462.335938 442.121094 461.949219 442.121094 " fill-opacity="1" fill-rule="nonzero"/><path fill="#000000" d="M 259.191406 381.246094 C 259.167969 381.246094 259.140625 381.246094 259.109375 381.246094 L 227.273438 380.292969 C 225.78125 380.246094 224.605469 378.996094 224.648438 377.5 C 224.695312 376.003906 225.976562 374.777344 227.4375 374.875 L 259.273438 375.828125 C 260.765625 375.871094 261.945312 377.117188 261.898438 378.613281 C 261.855469 380.082031 260.652344 381.246094 259.191406 381.246094 " fill-opacity="1" fill-rule="nonzero"/><path fill="#5479f7" d="M 293.042969 251.613281 C 293.019531 251.613281 293 251.613281 292.976562 251.613281 L 163.019531 248.417969 C 161.527344 248.382812 160.34375 247.136719 160.378906 245.636719 C 160.414062 244.148438 161.585938 242.941406 163.152344 243 L 293.109375 246.199219 C 294.605469 246.230469 295.789062 247.472656 295.753906 248.972656 C 295.71875 250.449219 294.511719 251.613281 293.042969 251.613281 " fill-opacity="1" fill-rule="nonzero"/><path fill="#5479f7" d="M 455.191406 255.652344 C 455.167969 255.652344 455.144531 255.652344 455.121094 255.652344 L 317.429688 252.253906 C 315.9375 252.214844 314.753906 250.976562 314.789062 249.476562 C 314.828125 248.011719 316.03125 246.835938 317.496094 246.835938 C 317.519531 246.835938 317.542969 246.835938 317.5625 246.835938 L 455.253906 250.222656 C 456.75 250.261719 457.933594 251.511719 457.894531 253 C 457.859375 254.476562 456.65625 255.652344 455.191406 255.652344 " fill-opacity="1" fill-rule="nonzero"/><path fill="#5479f7" d="M 353.488281 317.96875 C 353.46875 317.96875 353.445312 317.96875 353.417969 317.960938 L 163.011719 313.066406 C 161.511719 313.03125 160.332031 311.785156 160.371094 310.289062 C 160.410156 308.816406 161.617188 307.652344 163.082031 307.652344 C 163.101562 307.652344 163.125 307.652344 163.152344 307.652344 L 353.558594 312.546875 C 355.058594 312.582031 356.238281 313.828125 356.199219 315.320312 C 356.160156 316.796875 354.953125 317.96875 353.488281 317.96875 " fill-opacity="1" fill-rule="nonzero"/><path fill="#5479f7" d="M 455.179688 320.300781 C 455.160156 320.300781 455.136719 320.300781 455.121094 320.300781 L 377.886719 318.613281 C 376.386719 318.578125 375.203125 317.335938 375.234375 315.835938 C 375.265625 314.347656 376.507812 313.207031 378 313.191406 L 455.238281 314.890625 C 456.734375 314.914062 457.921875 316.15625 457.890625 317.652344 C 457.855469 319.125 456.652344 320.300781 455.179688 320.300781 " fill-opacity="1" fill-rule="nonzero"/><path fill="#5479f7" d="M 242.234375 282.351562 C 242.21875 282.351562 242.199219 282.351562 242.179688 282.351562 L 163.027344 280.75 C 161.53125 280.722656 160.34375 279.476562 160.375 277.988281 C 160.402344 276.488281 161.636719 275.328125 163.136719 275.328125 L 242.289062 276.929688 C 243.789062 276.960938 244.972656 278.195312 244.945312 279.691406 C 244.917969 281.171875 243.707031 282.351562 242.234375 282.351562 " fill-opacity="1" fill-rule="nonzero"/><path fill="#5479f7" d="M 455.191406 287.96875 C 455.164062 287.96875 455.140625 287.96875 455.117188 287.96875 L 266.621094 282.976562 C 265.125 282.9375 263.945312 281.6875 263.984375 280.191406 C 264.027344 278.695312 265.332031 277.476562 266.765625 277.554688 L 455.257812 282.542969 C 456.753906 282.582031 457.9375 283.835938 457.894531 285.332031 C 457.855469 286.796875 456.652344 287.96875 455.191406 287.96875 " fill-opacity="1" fill-rule="nonzero"/><path fill="#5479f7" d="M 567.976562 1383.738281 C 567.976562 1383.738281 491.082031 1215.195312 535.191406 996.695312 C 535.191406 996.695312 654.371094 1096.5625 611.402344 1383.738281 L 567.976562 1383.738281 " fill-opacity="1" fill-rule="nonzero"/><path fill="#ffffff" d="M 586.785156 1368.867188 C 586.734375 1368.867188 586.683594 1368.867188 586.632812 1368.867188 C 585.140625 1368.789062 583.996094 1367.507812 584.078125 1366.011719 C 589.960938 1258.316406 541.386719 1028.371094 540.894531 1026.0625 C 540.582031 1024.605469 541.515625 1023.164062 542.980469 1022.855469 C 544.4375 1022.535156 545.882812 1023.472656 546.195312 1024.933594 C 546.6875 1027.257812 595.410156 1257.898438 589.488281 1366.3125 C 589.410156 1367.757812 588.214844 1368.867188 586.785156 1368.867188 " fill-opacity="1" fill-rule="nonzero"/><path fill="#caddff" d="M 645.332031 1109.71875 C 645.332031 1109.71875 546.261719 1288.707031 605.859375 1366.167969 L 637.734375 1366.167969 C 637.734375 1366.167969 701.449219 1226.25 645.332031 1109.71875 " fill-opacity="1" fill-rule="nonzero"/><path fill="#ffffff" d="M 620.742188 1373.617188 C 619.296875 1373.617188 618.09375 1372.472656 618.035156 1371.015625 C 615.167969 1297.082031 642.378906 1111.191406 642.65625 1109.316406 C 642.878906 1107.835938 644.246094 1106.820312 645.738281 1107.035156 C 647.207031 1107.253906 648.230469 1108.628906 648.019531 1110.113281 C 647.742188 1111.96875 620.601562 1297.371094 623.457031 1370.800781 C 623.515625 1372.289062 622.34375 1373.550781 620.851562 1373.609375 C 620.816406 1373.617188 620.78125 1373.617188 620.742188 1373.617188 " fill-opacity="1" fill-rule="nonzero"/><path fill="#99b9ff" d="M 456.183594 1176.445312 C 456.183594 1176.445312 540.582031 1205.238281 571.140625 1375.707031 L 537.945312 1375.707031 C 537.945312 1375.707031 468.671875 1282.085938 456.183594 1176.445312 " fill-opacity="1" fill-rule="nonzero"/><path fill="#caddff" d="M 552.996094 1373.617188 C 551.695312 1373.617188 550.542969 1372.679688 550.328125 1371.351562 C 537.78125 1295.535156 483.488281 1219.183594 482.941406 1218.414062 C 482.066406 1217.199219 482.347656 1215.503906 483.5625 1214.628906 C 484.777344 1213.761719 486.472656 1214.039062 487.339844 1215.257812 C 487.898438 1216.03125 542.921875 1293.414062 555.675781 1370.464844 C 555.917969 1371.9375 554.921875 1373.332031 553.441406 1373.578125 C 553.292969 1373.601562 553.144531 1373.617188 552.996094 1373.617188 " fill-opacity="1" fill-rule="nonzero"/><path fill="#ffffff" d="M 488.746094 1362.179688 L 696.960938 1362.179688 L 701.632812 1460.664062 C 702.777344 1484.808594 683.511719 1505.011719 659.335938 1505.011719 L 540.417969 1505.011719 C 511.8125 1505.011719 488.632812 1481.8125 488.660156 1453.207031 L 488.746094 1362.179688 " fill-opacity="1" fill-rule="nonzero"/><path fill="#5479f7" d="M 491.453125 1364.878906 L 491.371094 1453.214844 C 491.359375 1466.324219 496.453125 1478.652344 505.71875 1487.917969 C 514.984375 1497.195312 527.304688 1502.304688 540.417969 1502.304688 L 659.335938 1502.304688 C 670.28125 1502.304688 680.464844 1497.941406 688.015625 1490.023438 C 695.570312 1482.109375 699.445312 1471.722656 698.929688 1460.785156 L 694.375 1364.878906 Z M 659.335938 1507.726562 L 540.417969 1507.726562 C 525.859375 1507.726562 512.175781 1502.050781 501.882812 1491.75 C 491.59375 1481.453125 485.9375 1467.761719 485.949219 1453.207031 L 486.035156 1362.171875 C 486.035156 1360.683594 487.25 1359.46875 488.746094 1359.46875 L 696.960938 1359.46875 C 698.40625 1359.46875 699.601562 1360.601562 699.664062 1362.050781 L 704.339844 1460.535156 C 704.929688 1472.960938 700.527344 1484.757812 691.9375 1493.765625 C 683.355469 1502.761719 671.769531 1507.726562 659.335938 1507.726562 " fill-opacity="1" fill-rule="nonzero"/><path fill="#caddff" d="M 1485.59375 1390.351562 L 992.519531 1390.351562 C 979.792969 1390.351562 969.378906 1379.9375 969.378906 1367.214844 L 969.378906 1172.941406 C 969.378906 1160.214844 979.792969 1149.804688 992.519531 1149.804688 L 1108.417969 1149.804688 C 1109.964844 1149.804688 1111.230469 1148.585938 1111.296875 1147.046875 L 1127.714844 1084.25 L 1188.882812 1149.140625 C 1189.394531 1149.578125 1190.042969 1149.804688 1190.722656 1149.804688 L 1485.59375 1149.804688 C 1498.320312 1149.804688 1508.726562 1160.214844 1508.726562 1172.941406 L 1508.726562 1367.214844 C 1508.726562 1379.9375 1498.320312 1390.351562 1485.59375 1390.351562 " fill-opacity="1" fill-rule="nonzero"/><path fill="#5479f7" d="M 1453.503906 1231.855469 L 1335.351562 1231.855469 C 1333.859375 1231.855469 1332.644531 1230.644531 1332.644531 1229.144531 C 1332.644531 1227.65625 1333.859375 1226.4375 1335.351562 1226.4375 L 1453.503906 1226.4375 C 1455.003906 1226.4375 1456.210938 1227.65625 1456.210938 1229.144531 C 1456.210938 1230.644531 1455.003906 1231.855469 1453.503906 1231.855469 " fill-opacity="1" fill-rule="nonzero"/><path fill="#5479f7" d="M 1284.710938 1231.859375 L 1024.320312 1231.859375 C 1022.828125 1231.859375 1021.613281 1230.644531 1021.613281 1229.144531 C 1021.613281 1227.65625 1022.828125 1226.4375 1024.320312 1226.4375 L 1284.710938 1226.4375 C 1286.207031 1226.4375 1287.414062 1227.65625 1287.414062 1229.144531 C 1287.414062 1230.644531 1286.207031 1231.859375 1284.710938 1231.859375 " fill-opacity="1" fill-rule="nonzero"/><path fill="#5479f7" d="M 1453.503906 1284.1875 L 1183.421875 1284.1875 C 1181.921875 1284.1875 1180.714844 1282.976562 1180.714844 1281.480469 C 1180.714844 1279.988281 1181.921875 1278.769531 1183.421875 1278.769531 L 1453.503906 1278.769531 C 1455.003906 1278.769531 1456.210938 1279.988281 1456.210938 1281.480469 C 1456.210938 1282.976562 1455.003906 1284.1875 1453.503906 1284.1875 " fill-opacity="1" fill-rule="nonzero"/><path fill="#5479f7" d="M 1131.085938 1284.1875 L 1024.324219 1284.1875 C 1022.824219 1284.1875 1021.613281 1282.976562 1021.613281 1281.480469 C 1021.613281 1279.988281 1022.824219 1278.769531 1024.324219 1278.769531 L 1131.085938 1278.769531 C 1132.585938 1278.769531 1133.796875 1279.988281 1133.796875 1281.480469 C 1133.796875 1282.976562 1132.585938 1284.1875 1131.085938 1284.1875 " fill-opacity="1" fill-rule="nonzero"/><path fill="#5479f7" d="M 1453.503906 1329.769531 L 1288.292969 1329.769531 C 1286.792969 1329.769531 1285.585938 1328.554688 1285.585938 1327.054688 C 1285.585938 1325.566406 1286.792969 1324.347656 1288.292969 1324.347656 L 1453.503906 1324.347656 C 1455.003906 1324.347656 1456.210938 1325.566406 1456.210938 1327.054688 C 1456.210938 1328.554688 1455.003906 1329.769531 1453.503906 1329.769531 " fill-opacity="1" fill-rule="nonzero"/><path fill="#5479f7" d="M 1235.632812 1329.769531 L 1024.320312 1329.769531 C 1022.824219 1329.769531 1021.605469 1328.554688 1021.605469 1327.058594 C 1021.605469 1325.570312 1022.824219 1324.351562 1024.320312 1324.351562 L 1235.632812 1324.351562 C 1237.128906 1324.351562 1238.34375 1325.570312 1238.34375 1327.058594 C 1238.34375 1328.554688 1237.128906 1329.769531 1235.632812 1329.769531 " fill-opacity="1" fill-rule="nonzero"/><path fill="#000000" d="M 1486.425781 1396.878906 C 1486.371094 1396.878906 1486.308594 1396.878906 1486.234375 1396.878906 L 987.425781 1392.808594 C 981.316406 1392.761719 975.574219 1390.3125 971.265625 1385.929688 C 966.945312 1381.542969 964.597656 1375.765625 964.652344 1369.65625 L 966.273438 1169.628906 C 966.390625 1157.035156 976.671875 1146.851562 989.25 1146.851562 C 989.3125 1146.851562 989.375 1146.851562 989.4375 1146.851562 L 1093.96875 1147.703125 L 1109.5625 1148.652344 L 1125.074219 1083.628906 C 1125.308594 1082.65625 1126.0625 1081.882812 1127.023438 1081.632812 C 1127.992188 1081.375 1129.015625 1081.679688 1129.699219 1082.414062 L 1190.632812 1148.496094 L 1284.726562 1149.257812 C 1286.222656 1149.273438 1287.417969 1150.496094 1287.40625 1151.992188 C 1287.394531 1153.492188 1286.203125 1154.773438 1284.679688 1154.675781 L 1189.417969 1153.898438 C 1188.671875 1153.898438 1187.964844 1153.582031 1187.457031 1153.03125 L 1129.164062 1089.835938 L 1114.3125 1152.121094 C 1114.007812 1153.40625 1112.800781 1154.269531 1111.511719 1154.203125 L 1093.777344 1153.125 L 989.394531 1152.269531 C 979.734375 1152.132812 971.777344 1160 971.703125 1169.675781 L 970.070312 1369.695312 C 970.027344 1374.363281 971.816406 1378.777344 975.121094 1382.132812 C 978.421875 1385.484375 982.8125 1387.351562 987.480469 1387.390625 L 1486.289062 1391.457031 C 1486.328125 1391.457031 1486.382812 1391.457031 1486.425781 1391.457031 C 1496.035156 1391.457031 1503.898438 1383.679688 1503.96875 1374.054688 L 1505.613281 1174.03125 C 1505.6875 1164.355469 1497.878906 1156.421875 1488.207031 1156.339844 L 1308.328125 1154.871094 C 1306.828125 1154.867188 1305.621094 1153.636719 1305.636719 1152.136719 C 1305.644531 1150.652344 1306.945312 1149.472656 1308.371094 1149.453125 L 1488.246094 1150.917969 C 1500.910156 1151.023438 1511.128906 1161.414062 1511.03125 1174.074219 L 1509.386719 1374.101562 C 1509.292969 1386.695312 1499 1396.878906 1486.425781 1396.878906 " fill-opacity="1" fill-rule="nonzero"/><path fill="#ffffff" d="M 264.742188 1408.644531 L 269.039062 1449.597656 L 296.730469 1452.84375 L 296.730469 1404.289062 L 264.742188 1408.644531 " fill-opacity="1" fill-rule="nonzero"/><path fill="#000000" d="M 271.507812 1447.164062 L 294.023438 1449.800781 L 294.023438 1407.390625 L 267.710938 1410.976562 Z M 296.730469 1455.554688 C 296.628906 1455.554688 296.523438 1455.546875 296.417969 1455.539062 L 268.722656 1452.289062 C 267.464844 1452.140625 266.476562 1451.144531 266.34375 1449.878906 L 262.046875 1408.921875 C 261.890625 1407.472656 262.925781 1406.152344 264.375 1405.957031 L 296.367188 1401.601562 C 297.144531 1401.496094 297.921875 1401.722656 298.511719 1402.242188 C 299.105469 1402.757812 299.441406 1403.5 299.441406 1404.289062 L 299.441406 1452.84375 C 299.441406 1453.621094 299.109375 1454.351562 298.535156 1454.867188 C 298.03125 1455.3125 297.394531 1455.554688 296.730469 1455.554688 " fill-opacity="1" fill-rule="nonzero"/><path fill="#5479f7" d="M 301.09375 1524.140625 C 289.554688 1525.769531 270.625 1527.191406 248.410156 1524.121094 C 241.128906 1523.109375 236.304688 1516.050781 238.058594 1508.910156 C 242.953125 1489.027344 251.378906 1451.3125 265.847656 1433.835938 L 269.441406 1443.316406 L 274.402344 1434.390625 C 275.085938 1433.164062 276.304688 1432.335938 277.691406 1432.167969 L 288.566406 1430.789062 C 290.832031 1430.503906 292.945312 1432 293.417969 1434.246094 L 295.148438 1442.464844 L 298.9375 1431.671875 L 311.585938 1510.277344 C 312.46875 1517 307.804688 1523.199219 301.09375 1524.140625 " fill-opacity="1" fill-rule="nonzero"/><path fill="#000000" d="M 265.066406 1439.417969 C 253.632812 1456.367188 246.277344 1486.617188 241.742188 1505.257812 L 240.691406 1509.558594 C 240.03125 1512.246094 240.523438 1514.980469 242.074219 1517.273438 C 243.613281 1519.539062 246.058594 1521.0625 248.78125 1521.4375 C 270.492188 1524.441406 289.007812 1523.109375 300.714844 1521.453125 C 305.917969 1520.726562 309.585938 1515.871094 308.898438 1510.640625 L 297.957031 1442.636719 L 297.703125 1443.367188 C 297.304688 1444.511719 296.175781 1445.246094 294.972656 1445.171875 C 293.757812 1445.09375 292.746094 1444.21875 292.496094 1443.019531 L 290.765625 1434.800781 C 290.585938 1433.949219 289.765625 1433.367188 288.90625 1433.472656 L 278.035156 1434.847656 C 277.503906 1434.921875 277.03125 1435.242188 276.773438 1435.710938 L 271.808594 1444.632812 C 271.296875 1445.558594 270.289062 1446.089844 269.246094 1446.015625 C 268.191406 1445.945312 267.28125 1445.265625 266.90625 1444.273438 Z M 274.910156 1528.644531 C 266.769531 1528.644531 257.710938 1528.140625 248.039062 1526.800781 C 243.796875 1526.21875 239.988281 1523.855469 237.589844 1520.308594 C 235.199219 1516.789062 234.410156 1512.402344 235.425781 1508.265625 L 236.476562 1503.972656 C 241.488281 1483.367188 249.878906 1448.875 263.761719 1432.109375 C 264.375 1431.363281 265.335938 1431.003906 266.289062 1431.164062 C 267.242188 1431.320312 268.039062 1431.976562 268.382812 1432.875 L 269.90625 1436.90625 L 272.035156 1433.074219 C 273.132812 1431.109375 275.117188 1429.757812 277.347656 1429.480469 L 288.222656 1428.09375 C 291.480469 1427.679688 294.585938 1429.601562 295.742188 1432.589844 L 296.382812 1430.773438 C 296.792969 1429.601562 297.960938 1428.867188 299.179688 1428.972656 C 300.414062 1429.085938 301.417969 1430.019531 301.613281 1431.238281 L 314.261719 1509.851562 C 315.347656 1518.097656 309.605469 1525.679688 301.46875 1526.824219 C 294.640625 1527.785156 285.558594 1528.644531 274.910156 1528.644531 " fill-opacity="1" fill-rule="nonzero"/><path fill="#000000" d="M 269.003906 1515.460938 C 261.546875 1515.460938 253.476562 1514.804688 245.429688 1512.972656 C 243.96875 1512.636719 243.058594 1511.1875 243.390625 1509.730469 C 243.71875 1508.273438 245.179688 1507.363281 246.632812 1507.683594 C 273.503906 1513.816406 301.617188 1505.941406 301.898438 1505.859375 C 303.335938 1505.449219 304.839844 1506.277344 305.25 1507.714844 C 305.660156 1509.15625 304.828125 1510.65625 303.390625 1511.0625 C 302.527344 1511.308594 287.699219 1515.460938 269.003906 1515.460938 " fill-opacity="1" fill-rule="nonzero"/><path fill="#000000" d="M 262.402344 1485.011719 C 260.945312 1485.011719 259.742188 1483.859375 259.695312 1482.394531 C 259.648438 1480.894531 260.816406 1479.644531 262.316406 1479.59375 L 288.269531 1478.742188 C 289.734375 1478.621094 291.019531 1479.863281 291.070312 1481.355469 C 291.117188 1482.851562 289.945312 1484.105469 288.449219 1484.15625 L 262.492188 1485.011719 C 262.460938 1485.011719 262.433594 1485.011719 262.402344 1485.011719 " fill-opacity="1" fill-rule="nonzero"/><path fill="#ffffff" d="M 394.449219 1386.839844 L 398.601562 1446.605469 L 431.921875 1446.605469 L 433.46875 1386.839844 L 394.449219 1386.839844 " fill-opacity="1" fill-rule="nonzero"/><path fill="#000000" d="M 401.128906 1443.898438 L 429.28125 1443.898438 L 430.691406 1389.550781 L 397.351562 1389.550781 Z M 431.921875 1449.316406 L 398.601562 1449.316406 C 397.175781 1449.316406 395.992188 1448.210938 395.894531 1446.792969 L 391.746094 1387.023438 C 391.695312 1386.277344 391.957031 1385.539062 392.46875 1384.992188 C 392.980469 1384.441406 393.699219 1384.128906 394.449219 1384.128906 L 433.46875 1384.128906 C 434.203125 1384.128906 434.902344 1384.425781 435.410156 1384.949219 C 435.921875 1385.472656 436.199219 1386.175781 436.179688 1386.90625 L 434.632812 1446.671875 C 434.59375 1448.148438 433.390625 1449.316406 431.921875 1449.316406 " fill-opacity="1" fill-rule="nonzero"/><path fill="#5479f7" d="M 389.894531 1480.347656 C 389.8125 1485.996094 393.671875 1490.957031 399.179688 1492.242188 C 418.335938 1496.703125 461.492188 1506.628906 473.804688 1508.460938 C 489.777344 1510.835938 509.414062 1505.945312 517.855469 1496.597656 C 526.296875 1487.257812 498.949219 1464.945312 485.972656 1456.824219 C 466.695312 1444.765625 448.175781 1420.929688 440.410156 1419.859375 C 432.640625 1418.785156 418.144531 1441.320312 418.144531 1441.320312 L 394.449219 1431.363281 C 394.449219 1431.363281 390.320312 1451.664062 389.894531 1480.347656 " fill-opacity="1" fill-rule="nonzero"/><path fill="#000000" d="M 392.605469 1480.386719 C 392.539062 1484.742188 395.5625 1488.617188 399.796875 1489.605469 C 418.085938 1493.855469 461.945312 1503.957031 474.199219 1505.785156 C 489.617188 1508.078125 508.292969 1503.140625 515.84375 1494.777344 C 516.320312 1494.257812 516.921875 1493.347656 516.671875 1491.5625 C 515.441406 1482.746094 497.21875 1467.058594 484.535156 1459.125 C 474.691406 1452.96875 465.332031 1444.085938 457.070312 1436.25 C 450.1875 1429.714844 443.070312 1422.960938 440.039062 1422.546875 C 436.386719 1421.988281 426.972656 1432.609375 420.425781 1442.785156 C 419.710938 1443.886719 418.308594 1444.324219 417.097656 1443.8125 L 396.519531 1435.167969 C 395.371094 1441.992188 392.921875 1458.886719 392.605469 1480.386719 Z M 482.113281 1511.769531 C 479.167969 1511.769531 476.242188 1511.5625 473.402344 1511.136719 C 461.398438 1509.351562 421.363281 1500.183594 398.566406 1494.878906 C 391.867188 1493.324219 387.082031 1487.191406 387.183594 1480.304688 C 387.609375 1451.707031 391.753906 1431.027344 391.792969 1430.824219 C 391.957031 1430.027344 392.464844 1429.347656 393.183594 1428.964844 C 393.902344 1428.585938 394.75 1428.546875 395.5 1428.867188 L 417.117188 1437.945312 C 421.8125 1430.953125 432.808594 1416.085938 440.777344 1417.171875 C 445.316406 1417.804688 451.050781 1423.066406 460.800781 1432.3125 C 468.875 1439.976562 478.027344 1448.664062 487.410156 1454.53125 C 495.816406 1459.789062 520.214844 1477.734375 522.042969 1490.808594 C 522.453125 1493.757812 521.699219 1496.386719 519.863281 1498.414062 C 512.539062 1506.527344 497.082031 1511.769531 482.113281 1511.769531 " fill-opacity="1" fill-rule="nonzero"/><path fill="#000000" d="M 481.835938 1500.765625 C 446.84375 1500.765625 400.210938 1481.925781 397.574219 1480.855469 C 396.1875 1480.28125 395.527344 1478.703125 396.089844 1477.316406 C 396.660156 1475.933594 398.242188 1475.269531 399.625 1475.835938 C 400.46875 1476.179688 484.199219 1510.019531 508.503906 1488.058594 C 509.613281 1487.058594 511.328125 1487.140625 512.328125 1488.253906 C 513.332031 1489.367188 513.242188 1491.078125 512.132812 1492.082031 C 505.128906 1498.40625 494.207031 1500.765625 481.835938 1500.765625 " fill-opacity="1" fill-rule="nonzero"/><path fill="#000000" d="M 444.894531 1464.601562 C 444.152344 1464.601562 443.414062 1464.300781 442.878906 1463.703125 C 441.878906 1462.597656 441.964844 1460.875 443.078125 1459.878906 L 460.027344 1444.59375 C 461.136719 1443.585938 462.847656 1443.675781 463.855469 1444.789062 C 464.855469 1445.902344 464.765625 1447.613281 463.65625 1448.613281 L 446.707031 1463.90625 C 446.191406 1464.375 445.539062 1464.601562 444.894531 1464.601562 " fill-opacity="1" fill-rule="nonzero"/><path fill="#000000" d="M 255.292969 997.210938 C 255.292969 997.210938 244.96875 1184.050781 239.5625 1248.546875 C 234.160156 1313.042969 252.199219 1416.722656 252.199219 1416.722656 L 303.632812 1414.015625 C 303.632812 1414.015625 307.160156 1287.960938 310.980469 1252.957031 C 310.980469 1252.957031 332.707031 1205.503906 339.144531 1163.175781 C 345.582031 1120.855469 367.519531 1054.007812 367.519531 1054.007812 C 367.519531 1054.007812 385.332031 1387.675781 387.046875 1413.882812 C 387.046875 1413.882812 427.382812 1415.683594 441.84375 1406.585938 C 441.84375 1406.585938 467.46875 1284.917969 463.785156 1218.722656 C 460.109375 1152.53125 464.148438 988.058594 464.148438 988.058594 L 255.292969 997.210938 " fill-opacity="1" fill-rule="nonzero"/><path fill="#ffffff" d="M 301.507812 1255.65625 L 285.785156 1255.65625 C 284.289062 1255.65625 283.078125 1254.445312 283.078125 1252.945312 C 283.078125 1251.449219 284.289062 1250.238281 285.785156 1250.238281 L 301.507812 1250.238281 C 303.003906 1250.238281 304.21875 1251.449219 304.21875 1252.945312 C 304.21875 1254.445312 303.003906 1255.65625 301.507812 1255.65625 " fill-opacity="1" fill-rule="nonzero"/><path fill="#ffffff" d="M 413.503906 1352.699219 C 413.488281 1352.699219 413.472656 1352.699219 413.457031 1352.699219 C 411.960938 1352.667969 410.765625 1351.429688 410.796875 1349.9375 C 411.363281 1318.789062 445.375 1263.238281 446.824219 1260.886719 C 447.609375 1259.609375 449.28125 1259.21875 450.550781 1259.996094 C 451.824219 1260.78125 452.222656 1262.449219 451.4375 1263.730469 C 451.09375 1264.292969 416.757812 1320.371094 416.214844 1350.039062 C 416.1875 1351.523438 414.980469 1352.699219 413.503906 1352.699219 " fill-opacity="1" fill-rule="nonzero"/><path fill="#ffffff" d="M 480.425781 698.402344 C 484.171875 698.105469 502.550781 735.746094 560.070312 734.171875 C 617.585938 732.589844 663.730469 668.230469 663.730469 668.230469 C 663.730469 668.230469 683.59375 634.738281 698.671875 622.628906 C 713.746094 610.523438 716.113281 608.921875 716.113281 608.921875 C 716.113281 608.921875 720.835938 615.21875 716.113281 622.628906 C 711.382812 630.039062 698.339844 643.902344 698.339844 643.902344 C 698.339844 643.902344 712.707031 651.792969 706.230469 668.230469 C 698.773438 687.136719 677.757812 685.621094 677.757812 685.621094 C 677.757812 685.621094 635.117188 874.417969 458.867188 784.703125 L 480.425781 698.402344 " fill-opacity="1" fill-rule="nonzero"/><path fill="#000000" d="M 462.019531 783.261719 C 513.0625 808.789062 557.515625 813.007812 594.1875 795.796875 C 656.007812 766.773438 674.929688 685.835938 675.113281 685.027344 C 675.417969 683.714844 676.609375 682.804688 677.953125 682.921875 C 678.730469 682.980469 697.09375 684.019531 703.710938 667.242188 C 709.210938 653.289062 697.523438 646.550781 697.019531 646.273438 C 696.292969 645.863281 695.792969 645.144531 695.660156 644.316406 C 695.539062 643.492188 695.792969 642.65625 696.367188 642.042969 C 696.488281 641.910156 709.296875 628.289062 713.820312 621.171875 C 715.875 617.953125 715.683594 615.023438 715.105469 613.066406 C 712.757812 614.878906 708.371094 618.316406 700.367188 624.742188 C 685.84375 636.40625 666.257812 669.289062 666.066406 669.617188 C 666.023438 669.679688 665.980469 669.746094 665.933594 669.8125 C 664.019531 672.480469 618.335938 735.285156 560.144531 736.875 C 513.261719 738.167969 491.9375 714.375 482.828125 704.214844 C 482.558594 703.914062 482.277344 703.601562 481.996094 703.289062 Z M 546.273438 811.609375 C 519.324219 811.609375 489.6875 803.4375 457.640625 787.121094 C 456.515625 786.546875 455.933594 785.269531 456.242188 784.050781 L 477.796875 697.746094 C 478.078125 696.617188 479.054688 695.789062 480.214844 695.699219 C 482.3125 695.527344 483.746094 697.125 486.863281 700.597656 C 495.476562 710.199219 515.660156 732.691406 559.996094 731.460938 C 614.566406 729.960938 659.5 669.433594 661.460938 666.742188 C 662.945312 664.261719 681.980469 632.570312 696.972656 620.515625 C 711.960938 608.476562 714.492188 606.746094 714.589844 606.679688 C 715.789062 605.871094 717.410156 606.140625 718.277344 607.292969 C 718.511719 607.613281 724.0625 615.195312 718.398438 624.089844 C 714.722656 629.851562 706.414062 639.136719 702.457031 643.441406 C 707.820312 647.796875 713.671875 656.746094 708.746094 669.230469 C 702.1875 685.867188 685.917969 688.085938 679.867188 688.324219 C 676.363281 701.546875 654.953125 773.257812 596.492188 800.703125 C 581.003906 807.972656 564.234375 811.609375 546.273438 811.609375 " fill-opacity="1" fill-rule="nonzero"/><path fill="#5479f7" d="M 195.359375 784.703125 C 195.359375 784.703125 212.621094 673.300781 273.601562 645.890625 C 334.582031 618.480469 417.078125 622.292969 439.828125 635.980469 C 462.578125 649.671875 521.871094 711.558594 521.871094 711.558594 L 469.476562 784.703125 C 469.476562 784.703125 481.449219 981.605469 471.984375 1033.597656 C 471.984375 1033.597656 413.695312 1040.390625 388.972656 1030.65625 C 364.25 1020.921875 282.960938 1007.273438 244.105469 1025.128906 L 251.167969 775.835938 L 195.359375 784.703125 " fill-opacity="1" fill-rule="nonzero"/><path fill="#000000" d="M 296.902344 1013.734375 C 333.960938 1013.734375 373.933594 1021.820312 389.964844 1028.132812 C 411.226562 1036.507812 459.246094 1032.1875 469.660156 1031.113281 C 478.324219 977.160156 466.890625 786.808594 466.769531 784.867188 C 466.730469 784.246094 466.910156 783.628906 467.273438 783.125 L 518.359375 711.8125 C 508.847656 701.980469 458.574219 650.425781 438.429688 638.300781 C 417.203125 625.527344 335.402344 621.082031 274.710938 648.363281 C 221.960938 672.074219 202.347656 762.042969 198.691406 781.429688 L 250.742188 773.160156 C 251.535156 773.027344 252.351562 773.265625 252.957031 773.800781 C 253.5625 774.328125 253.898438 775.105469 253.878906 775.910156 L 246.933594 1021 C 260.636719 1015.746094 278.40625 1013.734375 296.902344 1013.734375 Z M 430.902344 1038.628906 C 415.277344 1038.628906 398.71875 1037.402344 387.980469 1033.175781 C 362.503906 1023.136719 282.15625 1010.628906 245.234375 1027.585938 C 244.386719 1027.988281 243.394531 1027.902344 242.613281 1027.386719 C 241.828125 1026.875 241.371094 1025.988281 241.398438 1025.046875 L 248.367188 779.023438 L 195.785156 787.382812 C 194.929688 787.519531 194.0625 787.234375 193.449219 786.621094 C 192.832031 786.011719 192.546875 785.144531 192.683594 784.285156 C 193.394531 779.683594 210.875 671.113281 272.492188 643.417969 C 332.894531 616.269531 416.496094 618.78125 441.226562 633.65625 C 464.023438 647.378906 521.398438 707.148438 523.828125 709.683594 C 524.730469 710.625 524.835938 712.074219 524.078125 713.128906 L 472.238281 785.496094 C 473.238281 802.140625 483.828125 983.675781 474.648438 1034.078125 C 474.433594 1035.25 473.480469 1036.140625 472.296875 1036.28125 C 470.921875 1036.441406 451.75 1038.628906 430.902344 1038.628906 " fill-opacity="1" fill-rule="nonzero"/><path fill="#000000" d="M 297.667969 976.464844 C 296.378906 976.464844 295.234375 975.539062 295.003906 974.21875 C 294.742188 972.75 295.726562 971.339844 297.199219 971.085938 C 389.359375 954.792969 416.074219 891.226562 416.332031 890.589844 C 416.894531 889.203125 418.476562 888.535156 419.863281 889.089844 C 421.246094 889.65625 421.917969 891.234375 421.355469 892.621094 C 421.085938 893.289062 393.222656 959.613281 298.144531 976.421875 C 297.984375 976.449219 297.824219 976.464844 297.667969 976.464844 " fill-opacity="1" fill-rule="nonzero"/><path fill="#000000" d="M 465.0625 862.574219 L 346.398438 862.574219 L 383.566406 730.03125 L 502.230469 730.03125 L 465.0625 862.574219 " fill-opacity="1" fill-rule="nonzero"/><path fill="#ffffff" d="M 205.820312 785.128906 L 265.878906 758.292969 C 265.878906 758.292969 257.417969 860.042969 378.921875 813.054688 C 378.921875 813.054688 374.441406 799.980469 375.078125 784.703125 C 375.710938 769.433594 384.847656 784.210938 386.128906 796.625 C 387.40625 809.035156 415.929688 804.003906 433.074219 799.105469 C 450.214844 794.214844 472.71875 797.417969 433.074219 819.285156 C 393.429688 841.15625 384.742188 831.394531 384.742188 831.394531 C 384.742188 831.394531 334.113281 902.238281 271.121094 887.191406 C 193.640625 868.679688 205.820312 785.128906 205.820312 785.128906 " fill-opacity="1" fill-rule="nonzero"/><path fill="#000000" d="M 208.335938 786.980469 C 207.816406 792.054688 206.605469 809.683594 212.070312 828.644531 C 220.621094 858.324219 240.703125 877.136719 271.753906 884.554688 C 277.515625 885.929688 283.1875 886.550781 288.726562 886.550781 C 341.273438 886.5625 382.089844 830.445312 382.539062 829.824219 C 383.019531 829.152344 383.777344 828.734375 384.597656 828.691406 C 385.433594 828.644531 386.21875 828.980469 386.765625 829.59375 C 386.785156 829.59375 395.664062 836.824219 431.765625 816.914062 C 452.761719 805.328125 452.445312 801.085938 452.4375 801.039062 C 451.621094 799.710938 443.710938 798.890625 433.820312 801.710938 C 425.65625 804.039062 398.222656 811.082031 387.742188 803.992188 C 385.222656 802.289062 383.730469 799.832031 383.429688 796.902344 C 382.765625 790.441406 379.960938 784.128906 378.113281 781.746094 C 377.976562 782.410156 377.839844 783.382812 377.785156 784.816406 C 377.179688 799.417969 381.441406 812.046875 381.488281 812.179688 C 381.957031 813.554688 381.257812 815.054688 379.902344 815.585938 C 337.984375 831.789062 306.488281 832.34375 286.292969 817.230469 C 265.144531 801.414062 263.003906 773.429688 263.023438 762.53125 Z M 288.683594 891.972656 C 282.757812 891.972656 276.679688 891.300781 270.492188 889.828125 C 191.515625 870.957031 203.015625 785.601562 203.140625 784.742188 C 203.277344 783.828125 203.871094 783.03125 204.714844 782.65625 L 264.769531 755.808594 C 265.648438 755.417969 266.660156 755.523438 267.441406 756.082031 C 268.226562 756.628906 268.65625 757.554688 268.578125 758.511719 C 268.546875 758.875 265.871094 795.21875 289.566406 812.914062 C 307.804688 826.539062 336.742188 826.039062 375.597656 811.425781 C 374.304688 806.808594 371.878906 796.394531 372.367188 784.589844 C 372.460938 782.378906 372.738281 775.632812 377.429688 775.484375 C 377.464844 775.484375 377.507812 775.484375 377.546875 775.484375 C 383.539062 775.484375 388.070312 789.019531 388.824219 796.347656 C 388.960938 797.6875 389.585938 798.695312 390.78125 799.503906 C 397.136719 803.804688 416.230469 801.09375 432.332031 796.503906 C 439.789062 794.371094 454.636719 792.152344 457.457031 799.007812 C 459.761719 804.597656 452.648438 811.582031 434.386719 821.660156 C 403.878906 838.484375 390.5625 837.136719 385.433594 834.972656 C 377.390625 845.289062 338.234375 891.972656 288.683594 891.972656 " fill-opacity="1" fill-rule="nonzero"/><path fill="#000000" d="M 366.121094 595.121094 C 360.933594 599.867188 350.792969 605.667969 342.855469 601.667969 C 336.945312 598.6875 333.648438 590.984375 333.851562 582.152344 C 331.113281 582.371094 327.527344 582.183594 324.96875 579.914062 C 321.027344 576.4375 321.761719 570.027344 321.917969 565.816406 C 322.628906 546.382812 311.335938 543.394531 314.101562 530.203125 C 316.273438 519.839844 324.414062 513.65625 325.9375 512.503906 C 333.625 506.675781 338.835938 508.554688 351.757812 505.167969 C 373.511719 499.46875 374.203125 490.097656 388.535156 490.054688 C 389.363281 490.054688 408.867188 490.265625 415.488281 503.742188 C 420.871094 514.695312 414.582031 528.015625 408.078125 535.011719 C 399.664062 544.074219 393.617188 539.59375 385.167969 547.203125 C 370.335938 560.539062 381.535156 581.007812 366.121094 595.121094 " fill-opacity="1" fill-rule="nonzero"/><path fill="#ffffff" d="M 409.53125 560.433594 L 408.679688 559.695312 C 404.375 555.984375 399.890625 551.679688 398.746094 546.113281 C 393.890625 522.453125 372.214844 513.863281 371.21875 535.582031 C 370.964844 541.066406 350.941406 540.785156 353.316406 546.535156 C 359.511719 561.546875 359.644531 557.507812 350.90625 563.035156 C 349.914062 563.074219 348.933594 563.296875 348.003906 563.730469 C 343.519531 565.816406 341.933594 571.902344 344.457031 577.320312 C 345.992188 580.613281 348.691406 582.871094 351.578125 583.699219 L 351.578125 607.402344 C 351.578125 616.285156 346.199219 624.292969 337.976562 627.65625 L 329.96875 630.921875 C 329.96875 630.921875 367.296875 655.289062 405.179688 628.539062 L 400.121094 626.273438 C 391.21875 622.277344 385.375 613.558594 385.070312 603.800781 L 385.027344 599.164062 C 387.574219 599.394531 390.042969 599.222656 392.320312 598.558594 C 402.917969 595.472656 406.4375 583.265625 404.632812 568.085938 L 408.945312 565.769531 C 410.960938 564.6875 411.265625 561.917969 409.53125 560.433594 " fill-opacity="1" fill-rule="nonzero"/><path fill="#000000" d="M 336.238281 631.289062 C 346.65625 636.375 372.453125 645.570312 399.570312 628.992188 L 399.015625 628.746094 C 389.234375 624.355469 382.695312 614.597656 382.359375 603.890625 L 382.316406 599.191406 C 382.308594 598.425781 382.625 597.699219 383.1875 597.175781 C 383.75 596.660156 384.511719 596.398438 385.265625 596.472656 C 387.574219 596.667969 389.691406 596.496094 391.5625 595.953125 C 403.472656 592.492188 402.789062 575.539062 401.941406 568.40625 C 401.8125 567.300781 402.371094 566.226562 403.351562 565.703125 L 407.664062 563.386719 C 407.875 563.273438 407.9375 563.09375 407.949219 562.960938 C 407.964844 562.832031 407.945312 562.644531 407.761719 562.484375 L 406.90625 561.742188 C 402.371094 557.835938 397.421875 553.117188 396.097656 546.660156 C 393.214844 532.628906 384.429688 525.398438 379.46875 525.816406 C 374.855469 526.175781 374.054688 532.855469 373.921875 535.714844 C 373.710938 540.289062 368.074219 541.871094 362.621094 543.402344 C 360.472656 544 357 544.972656 355.945312 545.808594 C 356.785156 547.832031 357.507812 549.492188 358.105469 550.867188 C 361.066406 557.695312 362.066406 559.996094 356.023438 563.222656 C 355.042969 563.746094 353.824219 564.394531 352.355469 565.324219 C 351.953125 565.582031 351.492188 565.71875 351.019531 565.746094 C 350.34375 565.769531 349.710938 565.917969 349.148438 566.179688 C 346.027344 567.636719 345.027344 572.121094 346.914062 576.175781 C 348.050781 578.613281 350.070312 580.449219 352.320312 581.097656 C 353.484375 581.421875 354.285156 582.488281 354.285156 583.699219 L 354.285156 607.402344 C 354.285156 617.429688 348.285156 626.371094 339 630.160156 Z M 366.902344 643.703125 C 344.972656 643.703125 328.742188 633.363281 328.488281 633.191406 C 327.648438 632.644531 327.179688 631.675781 327.273438 630.671875 C 327.371094 629.667969 328.011719 628.800781 328.945312 628.417969 L 336.953125 625.144531 C 344.1875 622.1875 348.863281 615.21875 348.863281 607.402344 L 348.863281 585.558594 C 345.9375 584.175781 343.5 581.667969 342.003906 578.46875 C 338.851562 571.707031 341.027344 563.992188 346.859375 561.273438 C 347.851562 560.808594 348.917969 560.511719 350.03125 560.390625 C 351.40625 559.546875 352.535156 558.941406 353.46875 558.441406 C 354.011719 558.15625 354.609375 557.835938 354.96875 557.605469 C 354.746094 556.738281 353.960938 554.929688 353.132812 553.027344 C 352.496094 551.554688 351.71875 549.765625 350.8125 547.578125 C 350.253906 546.21875 350.273438 544.839844 350.882812 543.597656 C 352.3125 540.660156 356.414062 539.515625 361.160156 538.175781 C 363.480469 537.53125 367.765625 536.328125 368.515625 535.335938 C 369.167969 522.207031 376.734375 520.59375 379.042969 520.410156 C 387.171875 519.773438 398.042969 529.210938 401.402344 545.566406 C 402.386719 550.363281 406.585938 554.316406 410.445312 557.640625 L 411.304688 558.386719 C 412.789062 559.660156 413.550781 561.601562 413.335938 563.550781 C 413.125 565.507812 411.960938 567.226562 410.230469 568.160156 L 407.519531 569.617188 C 409.089844 586.566406 403.878906 598.015625 393.078125 601.164062 C 391.414062 601.648438 389.632812 601.90625 387.761719 601.964844 L 387.777344 603.773438 C 388.050781 612.371094 393.328125 620.253906 401.234375 623.800781 L 406.289062 626.066406 C 407.179688 626.46875 407.78125 627.3125 407.878906 628.277344 C 407.972656 629.242188 407.539062 630.195312 406.742188 630.75 C 392.886719 640.535156 379.019531 643.703125 366.902344 643.703125 " fill-opacity="1" fill-rule="nonzero"/><path fill="#000000" d="M 385.03125 601.875 C 384.894531 601.875 384.753906 601.867188 384.613281 601.84375 C 368.800781 599.417969 361.667969 587.300781 361.371094 586.785156 C 360.625 585.492188 361.074219 583.832031 362.367188 583.085938 C 363.664062 582.347656 365.316406 582.789062 366.066406 584.078125 C 366.160156 584.238281 372.3125 594.472656 385.4375 596.488281 C 386.917969 596.714844 387.929688 598.101562 387.703125 599.574219 C 387.5 600.917969 386.34375 601.875 385.03125 601.875 " fill-opacity="1" fill-rule="nonzero"/></svg>